<mxfile host="65bd71144e" compressed="false">
    <diagram id="Network Topology" name="Network Topology">
        <mxGraphModel dx="937" dy="1329" grid="0" gridSize="10" guides="1" tooltips="1" connect="1" arrows="1" fold="1" page="1" pageScale="1" pageWidth="800" pageHeight="550" background="#ffffff" math="0" shadow="0">
            <root>
                <mxCell id="0"/>
                <mxCell id="1" parent="0"/>
                <object label="R1" id="clab-LAB-2-R1">
                    <mxCell style="shape=image;imageAlign=center;imageVerticalAlign=middle;labelPosition=left;align=right;verticalLabelPosition=top;spacingLeft=0;verticalAlign=bottom;spacingTop=0;spacing=0;editableCssRules=\.st[0-2]$;labelBackgroundColor=none;aspect=fixed;imageAspect=0;image=data:image/svg+xml,PHN2ZyB4bWxuczp4bGluaz0iaHR0cDovL3d3dy53My5vcmcvMTk5OS94bGluayIgeG1sbnM9Imh0dHA6Ly93d3cudzMub3JnLzIwMDAvc3ZnIiB4bWw6c3BhY2U9InByZXNlcnZlIiBzdHlsZT0iZW5hYmxlLWJhY2tncm91bmQ6bmV3IDAgMCAxMjAgMTIwO2VkaXRhYmxlQ3NzUnVsZXM9Lio7IiB2aWV3Qm94PSIwIDAgMTIwIDEyMCIgeT0iMHB4IiB4PSIwcHgiIGlkPSJMYXllcl8xIiB2ZXJzaW9uPSIxLjEiPiYjeGE7PHN0eWxlIHR5cGU9InRleHQvY3NzIj4mI3hhOwkuc3Qwe2ZpbGw6IzAwMTEzNTt9JiN4YTsJLnN0MXtmaWxsOm5vbmU7c3Ryb2tlOiNGRkZGRkY7c3Ryb2tlLXdpZHRoOjQ7c3Ryb2tlLWxpbmVjYXA6cm91bmQ7c3Ryb2tlLWxpbmVqb2luOnJvdW5kO3N0cm9rZS1taXRlcmxpbWl0OjEwO30mI3hhOwkuc3Qye2ZpbGw6I0ZGRkZGRjt9JiN4YTsJLnN0M3tmaWxsOm5vbmU7c3Ryb2tlOiNGRkZGRkY7c3Ryb2tlLXdpZHRoOjQ7c3Ryb2tlLW1pdGVybGltaXQ6MTA7fSYjeGE7CS5zdDR7ZmlsbDpub25lO3N0cm9rZTojRkZGRkZGO3N0cm9rZS13aWR0aDo0O3N0cm9rZS1saW5lY2FwOnJvdW5kO3N0cm9rZS1saW5lam9pbjpyb3VuZDt9JiN4YTsJLnN0NXtmaWxsOiNGRkZGRkY7c3Ryb2tlOiNGRkZGRkY7c3Ryb2tlLXdpZHRoOjQ7c3Ryb2tlLWxpbmVjYXA6cm91bmQ7c3Ryb2tlLWxpbmVqb2luOnJvdW5kO3N0cm9rZS1taXRlcmxpbWl0OjEwO30mI3hhOwkuc3Q2e2ZpbGw6bm9uZTtzdHJva2U6I0ZGRkZGRjtzdHJva2Utd2lkdGg6NC4yMzMzO3N0cm9rZS1saW5lY2FwOnJvdW5kO3N0cm9rZS1saW5lam9pbjpyb3VuZDtzdHJva2UtbWl0ZXJsaW1pdDoxMDt9JiN4YTsJLnN0N3tmaWxsOm5vbmU7c3Ryb2tlOiNGRkZGRkY7c3Ryb2tlLXdpZHRoOjQ7c3Ryb2tlLWxpbmVjYXA6cm91bmQ7c3Ryb2tlLW1pdGVybGltaXQ6MTA7fSYjeGE7CS5zdDh7ZmlsbDojRkZGRkZGO3N0cm9rZTojRkZGRkZGO3N0cm9rZS13aWR0aDo0O3N0cm9rZS1taXRlcmxpbWl0OjEwO30mI3hhOwkuc3Q5e2ZpbGw6I0ZGRkZGRjtzdHJva2U6I0ZGRkZGRjtzdHJva2Utd2lkdGg6NDt9JiN4YTsJLnN0MTB7ZmlsbDpub25lO3N0cm9rZTojRkZGRkZGO3N0cm9rZS13aWR0aDo0O30mI3hhOwkuc3QxMXtmaWxsOiMyNjI2MjY7c3Ryb2tlOiNGRkZGRkY7c3Ryb2tlLXdpZHRoOjQuMjMzMzt9JiN4YTsJLnN0MTJ7ZmlsbC1ydWxlOmV2ZW5vZGQ7Y2xpcC1ydWxlOmV2ZW5vZGQ7ZmlsbDpub25lO3N0cm9rZTojRkZGRkZGO3N0cm9rZS13aWR0aDo0O3N0cm9rZS1taXRlcmxpbWl0OjEwO30mI3hhOwkuc3QxM3tmaWxsLXJ1bGU6ZXZlbm9kZDtjbGlwLXJ1bGU6ZXZlbm9kZDtmaWxsOiNGRkZGRkY7c3Ryb2tlOiNGRkZGRkY7c3Ryb2tlLXdpZHRoOjQ7fSYjeGE7CS5zdDE0e2ZpbGw6bm9uZTtzdHJva2U6I0ZGRkZGRjtzdHJva2Utd2lkdGg6NC4yMzMzO3N0cm9rZS1saW5lY2FwOnJvdW5kO3N0cm9rZS1saW5lam9pbjpyb3VuZDt9JiN4YTsJLnN0MTV7ZmlsbDpub25lO3N0cm9rZTojRkZGRkZGO3N0cm9rZS13aWR0aDo0O3N0cm9rZS1saW5lY2FwOnJvdW5kO30mI3hhOwkuc3QxNntmaWxsOiNGRkZGRkY7c3Ryb2tlOiNGRkZGRkY7c3Ryb2tlLW1pdGVybGltaXQ6MTA7fSYjeGE7CS5zdDE3e2ZpbGw6IzI2MjYyNjtzdHJva2U6I0ZGRkZGRjtzdHJva2Utd2lkdGg6NDtzdHJva2UtbWl0ZXJsaW1pdDoxMDt9JiN4YTsJLnN0MTh7ZmlsbDojRkZGRkZGO3N0cm9rZTojRkZGRkZGO3N0cm9rZS13aWR0aDo0O3N0cm9rZS1saW5lY2FwOnJvdW5kO3N0cm9rZS1saW5lam9pbjpyb3VuZDt9JiN4YTs8L3N0eWxlPiYjeGE7PHJlY3QgaGVpZ2h0PSIxMjAiIHdpZHRoPSIxMjAiIGNsYXNzPSJzdDAiLz4mI3hhOzxnPiYjeGE7CTxnPiYjeGE7CQk8cGF0aCBkPSJNNzEuNywxOS43VjQ4aDI4IiBjbGFzcz0ic3QxIi8+JiN4YTsJCTxwYXRoIGQ9Ik05MS4yLDM4LjVsNy41LDcuNmMxLjMsMS4zLDEuMywzLjEsMCw0LjNMOTEuMSw1OCIgY2xhc3M9InN0MSIvPiYjeGE7CTwvZz4mI3hhOwk8Zz4mI3hhOwkJPHBhdGggZD0iTTIwLDQ3LjhoMjguNHYtMjgiIGNsYXNzPSJzdDEiLz4mI3hhOwkJPHBhdGggZD0iTTM4LjgsMjguM2w3LjYtNy41YzEuMy0xLjMsMy4xLTEuMyw0LjMsMGw3LjcsNy42IiBjbGFzcz0ic3QxIi8+JiN4YTsJPC9nPiYjeGE7CTxnPiYjeGE7CQk8cGF0aCBkPSJNNDgsMTAwLjNWNzJIMjAiIGNsYXNzPSJzdDEiLz4mI3hhOwkJPHBhdGggZD0iTTI4LjUsODEuNUwyMSw3My45Yy0xLjMtMS4zLTEuMy0zLjEsMC00LjNsNy42LTcuNyIgY2xhc3M9InN0MSIvPiYjeGE7CTwvZz4mI3hhOwk8Zz4mI3hhOwkJPHBhdGggZD0iTTEwMCw3MS45SDcxLjZ2MjgiIGNsYXNzPSJzdDEiLz4mI3hhOwkJPHBhdGggZD0iTTgxLjIsOTEuNGwtNy42LDcuNWMtMS4zLDEuMy0zLjEsMS4zLTQuMywwbC03LjctNy42IiBjbGFzcz0ic3QxIi8+JiN4YTsJPC9nPiYjeGE7PC9nPiYjeGE7PC9zdmc+;" parent="1" vertex="1">
                        <mxGeometry x="246.72" y="80" width="75" height="75" as="geometry"/>
                    </mxCell>
                </object>
                <object label="R2" id="clab-LAB-2-R2">
                    <mxCell style="shape=image;imageAlign=center;imageVerticalAlign=middle;labelPosition=left;align=right;verticalLabelPosition=top;spacingLeft=0;verticalAlign=bottom;spacingTop=0;spacing=0;editableCssRules=\.st[0-2]$;labelBackgroundColor=none;aspect=fixed;imageAspect=0;image=data:image/svg+xml,PHN2ZyB4bWxuczp4bGluaz0iaHR0cDovL3d3dy53My5vcmcvMTk5OS94bGluayIgeG1sbnM9Imh0dHA6Ly93d3cudzMub3JnLzIwMDAvc3ZnIiB4bWw6c3BhY2U9InByZXNlcnZlIiBzdHlsZT0iZW5hYmxlLWJhY2tncm91bmQ6bmV3IDAgMCAxMjAgMTIwO2VkaXRhYmxlQ3NzUnVsZXM9Lio7IiB2aWV3Qm94PSIwIDAgMTIwIDEyMCIgeT0iMHB4IiB4PSIwcHgiIGlkPSJMYXllcl8xIiB2ZXJzaW9uPSIxLjEiPiYjeGE7PHN0eWxlIHR5cGU9InRleHQvY3NzIj4mI3hhOwkuc3Qwe2ZpbGw6IzAwMTEzNTt9JiN4YTsJLnN0MXtmaWxsOm5vbmU7c3Ryb2tlOiNGRkZGRkY7c3Ryb2tlLXdpZHRoOjQ7c3Ryb2tlLWxpbmVjYXA6cm91bmQ7c3Ryb2tlLWxpbmVqb2luOnJvdW5kO3N0cm9rZS1taXRlcmxpbWl0OjEwO30mI3hhOwkuc3Qye2ZpbGw6I0ZGRkZGRjt9JiN4YTsJLnN0M3tmaWxsOm5vbmU7c3Ryb2tlOiNGRkZGRkY7c3Ryb2tlLXdpZHRoOjQ7c3Ryb2tlLW1pdGVybGltaXQ6MTA7fSYjeGE7CS5zdDR7ZmlsbDpub25lO3N0cm9rZTojRkZGRkZGO3N0cm9rZS13aWR0aDo0O3N0cm9rZS1saW5lY2FwOnJvdW5kO3N0cm9rZS1saW5lam9pbjpyb3VuZDt9JiN4YTsJLnN0NXtmaWxsOiNGRkZGRkY7c3Ryb2tlOiNGRkZGRkY7c3Ryb2tlLXdpZHRoOjQ7c3Ryb2tlLWxpbmVjYXA6cm91bmQ7c3Ryb2tlLWxpbmVqb2luOnJvdW5kO3N0cm9rZS1taXRlcmxpbWl0OjEwO30mI3hhOwkuc3Q2e2ZpbGw6bm9uZTtzdHJva2U6I0ZGRkZGRjtzdHJva2Utd2lkdGg6NC4yMzMzO3N0cm9rZS1saW5lY2FwOnJvdW5kO3N0cm9rZS1saW5lam9pbjpyb3VuZDtzdHJva2UtbWl0ZXJsaW1pdDoxMDt9JiN4YTsJLnN0N3tmaWxsOm5vbmU7c3Ryb2tlOiNGRkZGRkY7c3Ryb2tlLXdpZHRoOjQ7c3Ryb2tlLWxpbmVjYXA6cm91bmQ7c3Ryb2tlLW1pdGVybGltaXQ6MTA7fSYjeGE7CS5zdDh7ZmlsbDojRkZGRkZGO3N0cm9rZTojRkZGRkZGO3N0cm9rZS13aWR0aDo0O3N0cm9rZS1taXRlcmxpbWl0OjEwO30mI3hhOwkuc3Q5e2ZpbGw6I0ZGRkZGRjtzdHJva2U6I0ZGRkZGRjtzdHJva2Utd2lkdGg6NDt9JiN4YTsJLnN0MTB7ZmlsbDpub25lO3N0cm9rZTojRkZGRkZGO3N0cm9rZS13aWR0aDo0O30mI3hhOwkuc3QxMXtmaWxsOiMyNjI2MjY7c3Ryb2tlOiNGRkZGRkY7c3Ryb2tlLXdpZHRoOjQuMjMzMzt9JiN4YTsJLnN0MTJ7ZmlsbC1ydWxlOmV2ZW5vZGQ7Y2xpcC1ydWxlOmV2ZW5vZGQ7ZmlsbDpub25lO3N0cm9rZTojRkZGRkZGO3N0cm9rZS13aWR0aDo0O3N0cm9rZS1taXRlcmxpbWl0OjEwO30mI3hhOwkuc3QxM3tmaWxsLXJ1bGU6ZXZlbm9kZDtjbGlwLXJ1bGU6ZXZlbm9kZDtmaWxsOiNGRkZGRkY7c3Ryb2tlOiNGRkZGRkY7c3Ryb2tlLXdpZHRoOjQ7fSYjeGE7CS5zdDE0e2ZpbGw6bm9uZTtzdHJva2U6I0ZGRkZGRjtzdHJva2Utd2lkdGg6NC4yMzMzO3N0cm9rZS1saW5lY2FwOnJvdW5kO3N0cm9rZS1saW5lam9pbjpyb3VuZDt9JiN4YTsJLnN0MTV7ZmlsbDpub25lO3N0cm9rZTojRkZGRkZGO3N0cm9rZS13aWR0aDo0O3N0cm9rZS1saW5lY2FwOnJvdW5kO30mI3hhOwkuc3QxNntmaWxsOiNGRkZGRkY7c3Ryb2tlOiNGRkZGRkY7c3Ryb2tlLW1pdGVybGltaXQ6MTA7fSYjeGE7CS5zdDE3e2ZpbGw6IzI2MjYyNjtzdHJva2U6I0ZGRkZGRjtzdHJva2Utd2lkdGg6NDtzdHJva2UtbWl0ZXJsaW1pdDoxMDt9JiN4YTsJLnN0MTh7ZmlsbDojRkZGRkZGO3N0cm9rZTojRkZGRkZGO3N0cm9rZS13aWR0aDo0O3N0cm9rZS1saW5lY2FwOnJvdW5kO3N0cm9rZS1saW5lam9pbjpyb3VuZDt9JiN4YTs8L3N0eWxlPiYjeGE7PHJlY3QgaGVpZ2h0PSIxMjAiIHdpZHRoPSIxMjAiIGNsYXNzPSJzdDAiLz4mI3hhOzxnPiYjeGE7CTxnPiYjeGE7CQk8cGF0aCBkPSJNNzEuNywxOS43VjQ4aDI4IiBjbGFzcz0ic3QxIi8+JiN4YTsJCTxwYXRoIGQ9Ik05MS4yLDM4LjVsNy41LDcuNmMxLjMsMS4zLDEuMywzLjEsMCw0LjNMOTEuMSw1OCIgY2xhc3M9InN0MSIvPiYjeGE7CTwvZz4mI3hhOwk8Zz4mI3hhOwkJPHBhdGggZD0iTTIwLDQ3LjhoMjguNHYtMjgiIGNsYXNzPSJzdDEiLz4mI3hhOwkJPHBhdGggZD0iTTM4LjgsMjguM2w3LjYtNy41YzEuMy0xLjMsMy4xLTEuMyw0LjMsMGw3LjcsNy42IiBjbGFzcz0ic3QxIi8+JiN4YTsJPC9nPiYjeGE7CTxnPiYjeGE7CQk8cGF0aCBkPSJNNDgsMTAwLjNWNzJIMjAiIGNsYXNzPSJzdDEiLz4mI3hhOwkJPHBhdGggZD0iTTI4LjUsODEuNUwyMSw3My45Yy0xLjMtMS4zLTEuMy0zLjEsMC00LjNsNy42LTcuNyIgY2xhc3M9InN0MSIvPiYjeGE7CTwvZz4mI3hhOwk8Zz4mI3hhOwkJPHBhdGggZD0iTTEwMCw3MS45SDcxLjZ2MjgiIGNsYXNzPSJzdDEiLz4mI3hhOwkJPHBhdGggZD0iTTgxLjIsOTEuNGwtNy42LDcuNWMtMS4zLDEuMy0zLjEsMS4zLTQuMywwbC03LjctNy42IiBjbGFzcz0ic3QxIi8+JiN4YTsJPC9nPiYjeGE7PC9nPiYjeGE7PC9zdmc+;" parent="1" vertex="1">
                        <mxGeometry x="244" y="445" width="75" height="75" as="geometry"/>
                    </mxCell>
                </object>
                <object label="R3" id="clab-LAB-2-R3">
                    <mxCell style="shape=image;imageAlign=center;imageVerticalAlign=middle;labelPosition=left;align=right;verticalLabelPosition=top;spacingLeft=0;verticalAlign=bottom;spacingTop=0;spacing=0;editableCssRules=\.st[0-2]$;labelBackgroundColor=none;aspect=fixed;imageAspect=0;image=data:image/svg+xml,PHN2ZyB4bWxuczp4bGluaz0iaHR0cDovL3d3dy53My5vcmcvMTk5OS94bGluayIgeG1sbnM9Imh0dHA6Ly93d3cudzMub3JnLzIwMDAvc3ZnIiB4bWw6c3BhY2U9InByZXNlcnZlIiBzdHlsZT0iZW5hYmxlLWJhY2tncm91bmQ6bmV3IDAgMCAxMjAgMTIwO2VkaXRhYmxlQ3NzUnVsZXM9Lio7IiB2aWV3Qm94PSIwIDAgMTIwIDEyMCIgeT0iMHB4IiB4PSIwcHgiIGlkPSJMYXllcl8xIiB2ZXJzaW9uPSIxLjEiPiYjeGE7PHN0eWxlIHR5cGU9InRleHQvY3NzIj4mI3hhOwkuc3Qwe2ZpbGw6IzAwMTEzNTt9JiN4YTsJLnN0MXtmaWxsOm5vbmU7c3Ryb2tlOiNGRkZGRkY7c3Ryb2tlLXdpZHRoOjQ7c3Ryb2tlLWxpbmVjYXA6cm91bmQ7c3Ryb2tlLWxpbmVqb2luOnJvdW5kO3N0cm9rZS1taXRlcmxpbWl0OjEwO30mI3hhOwkuc3Qye2ZpbGw6I0ZGRkZGRjt9JiN4YTsJLnN0M3tmaWxsOm5vbmU7c3Ryb2tlOiNGRkZGRkY7c3Ryb2tlLXdpZHRoOjQ7c3Ryb2tlLW1pdGVybGltaXQ6MTA7fSYjeGE7CS5zdDR7ZmlsbDpub25lO3N0cm9rZTojRkZGRkZGO3N0cm9rZS13aWR0aDo0O3N0cm9rZS1saW5lY2FwOnJvdW5kO3N0cm9rZS1saW5lam9pbjpyb3VuZDt9JiN4YTsJLnN0NXtmaWxsOiNGRkZGRkY7c3Ryb2tlOiNGRkZGRkY7c3Ryb2tlLXdpZHRoOjQ7c3Ryb2tlLWxpbmVjYXA6cm91bmQ7c3Ryb2tlLWxpbmVqb2luOnJvdW5kO3N0cm9rZS1taXRlcmxpbWl0OjEwO30mI3hhOwkuc3Q2e2ZpbGw6bm9uZTtzdHJva2U6I0ZGRkZGRjtzdHJva2Utd2lkdGg6NC4yMzMzO3N0cm9rZS1saW5lY2FwOnJvdW5kO3N0cm9rZS1saW5lam9pbjpyb3VuZDtzdHJva2UtbWl0ZXJsaW1pdDoxMDt9JiN4YTsJLnN0N3tmaWxsOm5vbmU7c3Ryb2tlOiNGRkZGRkY7c3Ryb2tlLXdpZHRoOjQ7c3Ryb2tlLWxpbmVjYXA6cm91bmQ7c3Ryb2tlLW1pdGVybGltaXQ6MTA7fSYjeGE7CS5zdDh7ZmlsbDojRkZGRkZGO3N0cm9rZTojRkZGRkZGO3N0cm9rZS13aWR0aDo0O3N0cm9rZS1taXRlcmxpbWl0OjEwO30mI3hhOwkuc3Q5e2ZpbGw6I0ZGRkZGRjtzdHJva2U6I0ZGRkZGRjtzdHJva2Utd2lkdGg6NDt9JiN4YTsJLnN0MTB7ZmlsbDpub25lO3N0cm9rZTojRkZGRkZGO3N0cm9rZS13aWR0aDo0O30mI3hhOwkuc3QxMXtmaWxsOiMyNjI2MjY7c3Ryb2tlOiNGRkZGRkY7c3Ryb2tlLXdpZHRoOjQuMjMzMzt9JiN4YTsJLnN0MTJ7ZmlsbC1ydWxlOmV2ZW5vZGQ7Y2xpcC1ydWxlOmV2ZW5vZGQ7ZmlsbDpub25lO3N0cm9rZTojRkZGRkZGO3N0cm9rZS13aWR0aDo0O3N0cm9rZS1taXRlcmxpbWl0OjEwO30mI3hhOwkuc3QxM3tmaWxsLXJ1bGU6ZXZlbm9kZDtjbGlwLXJ1bGU6ZXZlbm9kZDtmaWxsOiNGRkZGRkY7c3Ryb2tlOiNGRkZGRkY7c3Ryb2tlLXdpZHRoOjQ7fSYjeGE7CS5zdDE0e2ZpbGw6bm9uZTtzdHJva2U6I0ZGRkZGRjtzdHJva2Utd2lkdGg6NC4yMzMzO3N0cm9rZS1saW5lY2FwOnJvdW5kO3N0cm9rZS1saW5lam9pbjpyb3VuZDt9JiN4YTsJLnN0MTV7ZmlsbDpub25lO3N0cm9rZTojRkZGRkZGO3N0cm9rZS13aWR0aDo0O3N0cm9rZS1saW5lY2FwOnJvdW5kO30mI3hhOwkuc3QxNntmaWxsOiNGRkZGRkY7c3Ryb2tlOiNGRkZGRkY7c3Ryb2tlLW1pdGVybGltaXQ6MTA7fSYjeGE7CS5zdDE3e2ZpbGw6IzI2MjYyNjtzdHJva2U6I0ZGRkZGRjtzdHJva2Utd2lkdGg6NDtzdHJva2UtbWl0ZXJsaW1pdDoxMDt9JiN4YTsJLnN0MTh7ZmlsbDojRkZGRkZGO3N0cm9rZTojRkZGRkZGO3N0cm9rZS13aWR0aDo0O3N0cm9rZS1saW5lY2FwOnJvdW5kO3N0cm9rZS1saW5lam9pbjpyb3VuZDt9JiN4YTs8L3N0eWxlPiYjeGE7PHJlY3QgaGVpZ2h0PSIxMjAiIHdpZHRoPSIxMjAiIGNsYXNzPSJzdDAiLz4mI3hhOzxnPiYjeGE7CTxnPiYjeGE7CQk8cGF0aCBkPSJNNzEuNywxOS43VjQ4aDI4IiBjbGFzcz0ic3QxIi8+JiN4YTsJCTxwYXRoIGQ9Ik05MS4yLDM4LjVsNy41LDcuNmMxLjMsMS4zLDEuMywzLjEsMCw0LjNMOTEuMSw1OCIgY2xhc3M9InN0MSIvPiYjeGE7CTwvZz4mI3hhOwk8Zz4mI3hhOwkJPHBhdGggZD0iTTIwLDQ3LjhoMjguNHYtMjgiIGNsYXNzPSJzdDEiLz4mI3hhOwkJPHBhdGggZD0iTTM4LjgsMjguM2w3LjYtNy41YzEuMy0xLjMsMy4xLTEuMyw0LjMsMGw3LjcsNy42IiBjbGFzcz0ic3QxIi8+JiN4YTsJPC9nPiYjeGE7CTxnPiYjeGE7CQk8cGF0aCBkPSJNNDgsMTAwLjNWNzJIMjAiIGNsYXNzPSJzdDEiLz4mI3hhOwkJPHBhdGggZD0iTTI4LjUsODEuNUwyMSw3My45Yy0xLjMtMS4zLTEuMy0zLjEsMC00LjNsNy42LTcuNyIgY2xhc3M9InN0MSIvPiYjeGE7CTwvZz4mI3hhOwk8Zz4mI3hhOwkJPHBhdGggZD0iTTEwMCw3MS45SDcxLjZ2MjgiIGNsYXNzPSJzdDEiLz4mI3hhOwkJPHBhdGggZD0iTTgxLjIsOTEuNGwtNy42LDcuNWMtMS4zLDEuMy0zLjEsMS4zLTQuMywwbC03LjctNy42IiBjbGFzcz0ic3QxIi8+JiN4YTsJPC9nPiYjeGE7PC9nPiYjeGE7PC9zdmc+;" parent="1" vertex="1">
                        <mxGeometry x="50" y="282" width="75" height="75" as="geometry"/>
                    </mxCell>
                </object>
                <object label="R4" id="clab-LAB-2-R4">
                    <mxCell style="shape=image;imageAlign=center;imageVerticalAlign=middle;labelPosition=left;align=right;verticalLabelPosition=top;spacingLeft=0;verticalAlign=bottom;spacingTop=0;spacing=0;editableCssRules=\.st[0-2]$;labelBackgroundColor=none;aspect=fixed;imageAspect=0;image=data:image/svg+xml,PHN2ZyB4bWxuczp4bGluaz0iaHR0cDovL3d3dy53My5vcmcvMTk5OS94bGluayIgeG1sbnM9Imh0dHA6Ly93d3cudzMub3JnLzIwMDAvc3ZnIiB4bWw6c3BhY2U9InByZXNlcnZlIiBzdHlsZT0iZW5hYmxlLWJhY2tncm91bmQ6bmV3IDAgMCAxMjAgMTIwO2VkaXRhYmxlQ3NzUnVsZXM9Lio7IiB2aWV3Qm94PSIwIDAgMTIwIDEyMCIgeT0iMHB4IiB4PSIwcHgiIGlkPSJMYXllcl8xIiB2ZXJzaW9uPSIxLjEiPiYjeGE7PHN0eWxlIHR5cGU9InRleHQvY3NzIj4mI3hhOwkuc3Qwe2ZpbGw6IzAwMTEzNTt9JiN4YTsJLnN0MXtmaWxsOm5vbmU7c3Ryb2tlOiNGRkZGRkY7c3Ryb2tlLXdpZHRoOjQ7c3Ryb2tlLWxpbmVjYXA6cm91bmQ7c3Ryb2tlLWxpbmVqb2luOnJvdW5kO3N0cm9rZS1taXRlcmxpbWl0OjEwO30mI3hhOwkuc3Qye2ZpbGw6I0ZGRkZGRjt9JiN4YTsJLnN0M3tmaWxsOm5vbmU7c3Ryb2tlOiNGRkZGRkY7c3Ryb2tlLXdpZHRoOjQ7c3Ryb2tlLW1pdGVybGltaXQ6MTA7fSYjeGE7CS5zdDR7ZmlsbDpub25lO3N0cm9rZTojRkZGRkZGO3N0cm9rZS13aWR0aDo0O3N0cm9rZS1saW5lY2FwOnJvdW5kO3N0cm9rZS1saW5lam9pbjpyb3VuZDt9JiN4YTsJLnN0NXtmaWxsOiNGRkZGRkY7c3Ryb2tlOiNGRkZGRkY7c3Ryb2tlLXdpZHRoOjQ7c3Ryb2tlLWxpbmVjYXA6cm91bmQ7c3Ryb2tlLWxpbmVqb2luOnJvdW5kO3N0cm9rZS1taXRlcmxpbWl0OjEwO30mI3hhOwkuc3Q2e2ZpbGw6bm9uZTtzdHJva2U6I0ZGRkZGRjtzdHJva2Utd2lkdGg6NC4yMzMzO3N0cm9rZS1saW5lY2FwOnJvdW5kO3N0cm9rZS1saW5lam9pbjpyb3VuZDtzdHJva2UtbWl0ZXJsaW1pdDoxMDt9JiN4YTsJLnN0N3tmaWxsOm5vbmU7c3Ryb2tlOiNGRkZGRkY7c3Ryb2tlLXdpZHRoOjQ7c3Ryb2tlLWxpbmVjYXA6cm91bmQ7c3Ryb2tlLW1pdGVybGltaXQ6MTA7fSYjeGE7CS5zdDh7ZmlsbDojRkZGRkZGO3N0cm9rZTojRkZGRkZGO3N0cm9rZS13aWR0aDo0O3N0cm9rZS1taXRlcmxpbWl0OjEwO30mI3hhOwkuc3Q5e2ZpbGw6I0ZGRkZGRjtzdHJva2U6I0ZGRkZGRjtzdHJva2Utd2lkdGg6NDt9JiN4YTsJLnN0MTB7ZmlsbDpub25lO3N0cm9rZTojRkZGRkZGO3N0cm9rZS13aWR0aDo0O30mI3hhOwkuc3QxMXtmaWxsOiMyNjI2MjY7c3Ryb2tlOiNGRkZGRkY7c3Ryb2tlLXdpZHRoOjQuMjMzMzt9JiN4YTsJLnN0MTJ7ZmlsbC1ydWxlOmV2ZW5vZGQ7Y2xpcC1ydWxlOmV2ZW5vZGQ7ZmlsbDpub25lO3N0cm9rZTojRkZGRkZGO3N0cm9rZS13aWR0aDo0O3N0cm9rZS1taXRlcmxpbWl0OjEwO30mI3hhOwkuc3QxM3tmaWxsLXJ1bGU6ZXZlbm9kZDtjbGlwLXJ1bGU6ZXZlbm9kZDtmaWxsOiNGRkZGRkY7c3Ryb2tlOiNGRkZGRkY7c3Ryb2tlLXdpZHRoOjQ7fSYjeGE7CS5zdDE0e2ZpbGw6bm9uZTtzdHJva2U6I0ZGRkZGRjtzdHJva2Utd2lkdGg6NC4yMzMzO3N0cm9rZS1saW5lY2FwOnJvdW5kO3N0cm9rZS1saW5lam9pbjpyb3VuZDt9JiN4YTsJLnN0MTV7ZmlsbDpub25lO3N0cm9rZTojRkZGRkZGO3N0cm9rZS13aWR0aDo0O3N0cm9rZS1saW5lY2FwOnJvdW5kO30mI3hhOwkuc3QxNntmaWxsOiNGRkZGRkY7c3Ryb2tlOiNGRkZGRkY7c3Ryb2tlLW1pdGVybGltaXQ6MTA7fSYjeGE7CS5zdDE3e2ZpbGw6IzI2MjYyNjtzdHJva2U6I0ZGRkZGRjtzdHJva2Utd2lkdGg6NDtzdHJva2UtbWl0ZXJsaW1pdDoxMDt9JiN4YTsJLnN0MTh7ZmlsbDojRkZGRkZGO3N0cm9rZTojRkZGRkZGO3N0cm9rZS13aWR0aDo0O3N0cm9rZS1saW5lY2FwOnJvdW5kO3N0cm9rZS1saW5lam9pbjpyb3VuZDt9JiN4YTs8L3N0eWxlPiYjeGE7PHJlY3QgaGVpZ2h0PSIxMjAiIHdpZHRoPSIxMjAiIGNsYXNzPSJzdDAiLz4mI3hhOzxnPiYjeGE7CTxnPiYjeGE7CQk8cGF0aCBkPSJNNzEuNywxOS43VjQ4aDI4IiBjbGFzcz0ic3QxIi8+JiN4YTsJCTxwYXRoIGQ9Ik05MS4yLDM4LjVsNy41LDcuNmMxLjMsMS4zLDEuMywzLjEsMCw0LjNMOTEuMSw1OCIgY2xhc3M9InN0MSIvPiYjeGE7CTwvZz4mI3hhOwk8Zz4mI3hhOwkJPHBhdGggZD0iTTIwLDQ3LjhoMjguNHYtMjgiIGNsYXNzPSJzdDEiLz4mI3hhOwkJPHBhdGggZD0iTTM4LjgsMjguM2w3LjYtNy41YzEuMy0xLjMsMy4xLTEuMyw0LjMsMGw3LjcsNy42IiBjbGFzcz0ic3QxIi8+JiN4YTsJPC9nPiYjeGE7CTxnPiYjeGE7CQk8cGF0aCBkPSJNNDgsMTAwLjNWNzJIMjAiIGNsYXNzPSJzdDEiLz4mI3hhOwkJPHBhdGggZD0iTTI4LjUsODEuNUwyMSw3My45Yy0xLjMtMS4zLTEuMy0zLjEsMC00LjNsNy42LTcuNyIgY2xhc3M9InN0MSIvPiYjeGE7CTwvZz4mI3hhOwk8Zz4mI3hhOwkJPHBhdGggZD0iTTEwMCw3MS45SDcxLjZ2MjgiIGNsYXNzPSJzdDEiLz4mI3hhOwkJPHBhdGggZD0iTTgxLjIsOTEuNGwtNy42LDcuNWMtMS4zLDEuMy0zLjEsMS4zLTQuMywwbC03LjctNy42IiBjbGFzcz0ic3QxIi8+JiN4YTsJPC9nPiYjeGE7PC9nPiYjeGE7PC9zdmc+;" parent="1" vertex="1">
                        <mxGeometry x="645" y="80" width="75" height="75" as="geometry"/>
                    </mxCell>
                </object>
                <object label="R5" id="clab-LAB-2-R5">
                    <mxCell style="shape=image;imageAlign=center;imageVerticalAlign=middle;labelPosition=left;align=right;verticalLabelPosition=top;spacingLeft=0;verticalAlign=bottom;spacingTop=0;spacing=0;editableCssRules=\.st[0-2]$;labelBackgroundColor=none;aspect=fixed;imageAspect=0;image=data:image/svg+xml,PHN2ZyB4bWxuczp4bGluaz0iaHR0cDovL3d3dy53My5vcmcvMTk5OS94bGluayIgeG1sbnM9Imh0dHA6Ly93d3cudzMub3JnLzIwMDAvc3ZnIiB4bWw6c3BhY2U9InByZXNlcnZlIiBzdHlsZT0iZW5hYmxlLWJhY2tncm91bmQ6bmV3IDAgMCAxMjAgMTIwO2VkaXRhYmxlQ3NzUnVsZXM9Lio7IiB2aWV3Qm94PSIwIDAgMTIwIDEyMCIgeT0iMHB4IiB4PSIwcHgiIGlkPSJMYXllcl8xIiB2ZXJzaW9uPSIxLjEiPiYjeGE7PHN0eWxlIHR5cGU9InRleHQvY3NzIj4mI3hhOwkuc3Qwe2ZpbGw6IzAwMTEzNTt9JiN4YTsJLnN0MXtmaWxsOm5vbmU7c3Ryb2tlOiNGRkZGRkY7c3Ryb2tlLXdpZHRoOjQ7c3Ryb2tlLWxpbmVjYXA6cm91bmQ7c3Ryb2tlLWxpbmVqb2luOnJvdW5kO3N0cm9rZS1taXRlcmxpbWl0OjEwO30mI3hhOwkuc3Qye2ZpbGw6I0ZGRkZGRjt9JiN4YTsJLnN0M3tmaWxsOm5vbmU7c3Ryb2tlOiNGRkZGRkY7c3Ryb2tlLXdpZHRoOjQ7c3Ryb2tlLW1pdGVybGltaXQ6MTA7fSYjeGE7CS5zdDR7ZmlsbDpub25lO3N0cm9rZTojRkZGRkZGO3N0cm9rZS13aWR0aDo0O3N0cm9rZS1saW5lY2FwOnJvdW5kO3N0cm9rZS1saW5lam9pbjpyb3VuZDt9JiN4YTsJLnN0NXtmaWxsOiNGRkZGRkY7c3Ryb2tlOiNGRkZGRkY7c3Ryb2tlLXdpZHRoOjQ7c3Ryb2tlLWxpbmVjYXA6cm91bmQ7c3Ryb2tlLWxpbmVqb2luOnJvdW5kO3N0cm9rZS1taXRlcmxpbWl0OjEwO30mI3hhOwkuc3Q2e2ZpbGw6bm9uZTtzdHJva2U6I0ZGRkZGRjtzdHJva2Utd2lkdGg6NC4yMzMzO3N0cm9rZS1saW5lY2FwOnJvdW5kO3N0cm9rZS1saW5lam9pbjpyb3VuZDtzdHJva2UtbWl0ZXJsaW1pdDoxMDt9JiN4YTsJLnN0N3tmaWxsOm5vbmU7c3Ryb2tlOiNGRkZGRkY7c3Ryb2tlLXdpZHRoOjQ7c3Ryb2tlLWxpbmVjYXA6cm91bmQ7c3Ryb2tlLW1pdGVybGltaXQ6MTA7fSYjeGE7CS5zdDh7ZmlsbDojRkZGRkZGO3N0cm9rZTojRkZGRkZGO3N0cm9rZS13aWR0aDo0O3N0cm9rZS1taXRlcmxpbWl0OjEwO30mI3hhOwkuc3Q5e2ZpbGw6I0ZGRkZGRjtzdHJva2U6I0ZGRkZGRjtzdHJva2Utd2lkdGg6NDt9JiN4YTsJLnN0MTB7ZmlsbDpub25lO3N0cm9rZTojRkZGRkZGO3N0cm9rZS13aWR0aDo0O30mI3hhOwkuc3QxMXtmaWxsOiMyNjI2MjY7c3Ryb2tlOiNGRkZGRkY7c3Ryb2tlLXdpZHRoOjQuMjMzMzt9JiN4YTsJLnN0MTJ7ZmlsbC1ydWxlOmV2ZW5vZGQ7Y2xpcC1ydWxlOmV2ZW5vZGQ7ZmlsbDpub25lO3N0cm9rZTojRkZGRkZGO3N0cm9rZS13aWR0aDo0O3N0cm9rZS1taXRlcmxpbWl0OjEwO30mI3hhOwkuc3QxM3tmaWxsLXJ1bGU6ZXZlbm9kZDtjbGlwLXJ1bGU6ZXZlbm9kZDtmaWxsOiNGRkZGRkY7c3Ryb2tlOiNGRkZGRkY7c3Ryb2tlLXdpZHRoOjQ7fSYjeGE7CS5zdDE0e2ZpbGw6bm9uZTtzdHJva2U6I0ZGRkZGRjtzdHJva2Utd2lkdGg6NC4yMzMzO3N0cm9rZS1saW5lY2FwOnJvdW5kO3N0cm9rZS1saW5lam9pbjpyb3VuZDt9JiN4YTsJLnN0MTV7ZmlsbDpub25lO3N0cm9rZTojRkZGRkZGO3N0cm9rZS13aWR0aDo0O3N0cm9rZS1saW5lY2FwOnJvdW5kO30mI3hhOwkuc3QxNntmaWxsOiNGRkZGRkY7c3Ryb2tlOiNGRkZGRkY7c3Ryb2tlLW1pdGVybGltaXQ6MTA7fSYjeGE7CS5zdDE3e2ZpbGw6IzI2MjYyNjtzdHJva2U6I0ZGRkZGRjtzdHJva2Utd2lkdGg6NDtzdHJva2UtbWl0ZXJsaW1pdDoxMDt9JiN4YTsJLnN0MTh7ZmlsbDojRkZGRkZGO3N0cm9rZTojRkZGRkZGO3N0cm9rZS13aWR0aDo0O3N0cm9rZS1saW5lY2FwOnJvdW5kO3N0cm9rZS1saW5lam9pbjpyb3VuZDt9JiN4YTs8L3N0eWxlPiYjeGE7PHJlY3QgaGVpZ2h0PSIxMjAiIHdpZHRoPSIxMjAiIGNsYXNzPSJzdDAiLz4mI3hhOzxnPiYjeGE7CTxnPiYjeGE7CQk8cGF0aCBkPSJNNzEuNywxOS43VjQ4aDI4IiBjbGFzcz0ic3QxIi8+JiN4YTsJCTxwYXRoIGQ9Ik05MS4yLDM4LjVsNy41LDcuNmMxLjMsMS4zLDEuMywzLjEsMCw0LjNMOTEuMSw1OCIgY2xhc3M9InN0MSIvPiYjeGE7CTwvZz4mI3hhOwk8Zz4mI3hhOwkJPHBhdGggZD0iTTIwLDQ3LjhoMjguNHYtMjgiIGNsYXNzPSJzdDEiLz4mI3hhOwkJPHBhdGggZD0iTTM4LjgsMjguM2w3LjYtNy41YzEuMy0xLjMsMy4xLTEuMyw0LjMsMGw3LjcsNy42IiBjbGFzcz0ic3QxIi8+JiN4YTsJPC9nPiYjeGE7CTxnPiYjeGE7CQk8cGF0aCBkPSJNNDgsMTAwLjNWNzJIMjAiIGNsYXNzPSJzdDEiLz4mI3hhOwkJPHBhdGggZD0iTTI4LjUsODEuNUwyMSw3My45Yy0xLjMtMS4zLTEuMy0zLjEsMC00LjNsNy42LTcuNyIgY2xhc3M9InN0MSIvPiYjeGE7CTwvZz4mI3hhOwk8Zz4mI3hhOwkJPHBhdGggZD0iTTEwMCw3MS45SDcxLjZ2MjgiIGNsYXNzPSJzdDEiLz4mI3hhOwkJPHBhdGggZD0iTTgxLjIsOTEuNGwtNy42LDcuNWMtMS4zLDEuMy0zLjEsMS4zLTQuMywwbC03LjctNy42IiBjbGFzcz0ic3QxIi8+JiN4YTsJPC9nPiYjeGE7PC9nPiYjeGE7PC9zdmc+;" parent="1" vertex="1">
                        <mxGeometry x="645" y="445" width="75" height="75" as="geometry"/>
                    </mxCell>
                </object>
                <object label="SW1" id="clab-LAB-2-SW1">
                    <mxCell style="shape=image;imageAlign=center;imageVerticalAlign=middle;labelPosition=left;align=right;verticalLabelPosition=top;spacingLeft=0;verticalAlign=bottom;spacingTop=0;spacing=0;editableCssRules=\.st[0-2]$;labelBackgroundColor=none;aspect=fixed;imageAspect=0;image=data:image/svg+xml,PHN2ZyB4bWxuczp4bGluaz0iaHR0cDovL3d3dy53My5vcmcvMTk5OS94bGluayIgeG1sbnM9Imh0dHA6Ly93d3cudzMub3JnLzIwMDAvc3ZnIiB4bWw6c3BhY2U9InByZXNlcnZlIiBzdHlsZT0iZW5hYmxlLWJhY2tncm91bmQ6bmV3IDAgMCAxMjAgMTIwO2VkaXRhYmxlQ3NzUnVsZXM9Lio7IiB2aWV3Qm94PSIwIDAgMTIwIDEyMCIgeT0iMHB4IiB4PSIwcHgiIGlkPSJMYXllcl8xIiB2ZXJzaW9uPSIxLjEiPiYjeGE7PHN0eWxlIHR5cGU9InRleHQvY3NzIj4mI3hhOwkuc3Qwe2ZpbGw6IzAwMTEzNTt9JiN4YTsJLnN0MXtmaWxsOm5vbmU7c3Ryb2tlOiNGRkZGRkY7c3Ryb2tlLXdpZHRoOjQ7c3Ryb2tlLWxpbmVjYXA6cm91bmQ7c3Ryb2tlLWxpbmVqb2luOnJvdW5kO3N0cm9rZS1taXRlcmxpbWl0OjEwO30mI3hhOwkuc3Qye2ZpbGw6I0ZGRkZGRjt9JiN4YTsJLnN0M3tmaWxsOm5vbmU7c3Ryb2tlOiNGRkZGRkY7c3Ryb2tlLXdpZHRoOjQ7c3Ryb2tlLW1pdGVybGltaXQ6MTA7fSYjeGE7CS5zdDR7ZmlsbDpub25lO3N0cm9rZTojRkZGRkZGO3N0cm9rZS13aWR0aDo0O3N0cm9rZS1saW5lY2FwOnJvdW5kO3N0cm9rZS1saW5lam9pbjpyb3VuZDt9JiN4YTsJLnN0NXtmaWxsOiNGRkZGRkY7c3Ryb2tlOiNGRkZGRkY7c3Ryb2tlLXdpZHRoOjQ7c3Ryb2tlLWxpbmVjYXA6cm91bmQ7c3Ryb2tlLWxpbmVqb2luOnJvdW5kO3N0cm9rZS1taXRlcmxpbWl0OjEwO30mI3hhOwkuc3Q2e2ZpbGw6bm9uZTtzdHJva2U6I0ZGRkZGRjtzdHJva2Utd2lkdGg6NC4yMzMzO3N0cm9rZS1saW5lY2FwOnJvdW5kO3N0cm9rZS1saW5lam9pbjpyb3VuZDtzdHJva2UtbWl0ZXJsaW1pdDoxMDt9JiN4YTsJLnN0N3tmaWxsOm5vbmU7c3Ryb2tlOiNGRkZGRkY7c3Ryb2tlLXdpZHRoOjQ7c3Ryb2tlLWxpbmVjYXA6cm91bmQ7c3Ryb2tlLW1pdGVybGltaXQ6MTA7fSYjeGE7CS5zdDh7ZmlsbDojRkZGRkZGO3N0cm9rZTojRkZGRkZGO3N0cm9rZS13aWR0aDo0O3N0cm9rZS1taXRlcmxpbWl0OjEwO30mI3hhOwkuc3Q5e2ZpbGw6I0ZGRkZGRjtzdHJva2U6I0ZGRkZGRjtzdHJva2Utd2lkdGg6NDt9JiN4YTsJLnN0MTB7ZmlsbDpub25lO3N0cm9rZTojRkZGRkZGO3N0cm9rZS13aWR0aDo0O30mI3hhOwkuc3QxMXtmaWxsOiMyNjI2MjY7c3Ryb2tlOiNGRkZGRkY7c3Ryb2tlLXdpZHRoOjQuMjMzMzt9JiN4YTsJLnN0MTJ7ZmlsbC1ydWxlOmV2ZW5vZGQ7Y2xpcC1ydWxlOmV2ZW5vZGQ7ZmlsbDpub25lO3N0cm9rZTojRkZGRkZGO3N0cm9rZS13aWR0aDo0O3N0cm9rZS1taXRlcmxpbWl0OjEwO30mI3hhOwkuc3QxM3tmaWxsLXJ1bGU6ZXZlbm9kZDtjbGlwLXJ1bGU6ZXZlbm9kZDtmaWxsOiNGRkZGRkY7c3Ryb2tlOiNGRkZGRkY7c3Ryb2tlLXdpZHRoOjQ7fSYjeGE7CS5zdDE0e2ZpbGw6bm9uZTtzdHJva2U6I0ZGRkZGRjtzdHJva2Utd2lkdGg6NC4yMzMzO3N0cm9rZS1saW5lY2FwOnJvdW5kO3N0cm9rZS1saW5lam9pbjpyb3VuZDt9JiN4YTsJLnN0MTV7ZmlsbDpub25lO3N0cm9rZTojRkZGRkZGO3N0cm9rZS13aWR0aDo0O3N0cm9rZS1saW5lY2FwOnJvdW5kO30mI3hhOwkuc3QxNntmaWxsOiNGRkZGRkY7c3Ryb2tlOiNGRkZGRkY7c3Ryb2tlLW1pdGVybGltaXQ6MTA7fSYjeGE7CS5zdDE3e2ZpbGw6IzI2MjYyNjtzdHJva2U6I0ZGRkZGRjtzdHJva2Utd2lkdGg6NDtzdHJva2UtbWl0ZXJsaW1pdDoxMDt9JiN4YTsJLnN0MTh7ZmlsbDojRkZGRkZGO3N0cm9rZTojRkZGRkZGO3N0cm9rZS13aWR0aDo0O3N0cm9rZS1saW5lY2FwOnJvdW5kO3N0cm9rZS1saW5lam9pbjpyb3VuZDt9JiN4YTs8L3N0eWxlPiYjeGE7PHJlY3QgaGVpZ2h0PSIxMjAiIHdpZHRoPSIxMjAiIGNsYXNzPSJzdDAiLz4mI3hhOzxnPiYjeGE7CTxnPiYjeGE7CQk8cGF0aCBkPSJNNzEuNywxOS43VjQ4aDI4IiBjbGFzcz0ic3QxIi8+JiN4YTsJCTxwYXRoIGQ9Ik05MS4yLDM4LjVsNy41LDcuNmMxLjMsMS4zLDEuMywzLjEsMCw0LjNMOTEuMSw1OCIgY2xhc3M9InN0MSIvPiYjeGE7CTwvZz4mI3hhOwk8Zz4mI3hhOwkJPHBhdGggZD0iTTIwLDQ3LjhoMjguNHYtMjgiIGNsYXNzPSJzdDEiLz4mI3hhOwkJPHBhdGggZD0iTTM4LjgsMjguM2w3LjYtNy41YzEuMy0xLjMsMy4xLTEuMyw0LjMsMGw3LjcsNy42IiBjbGFzcz0ic3QxIi8+JiN4YTsJPC9nPiYjeGE7CTxnPiYjeGE7CQk8cGF0aCBkPSJNNDgsMTAwLjNWNzJIMjAiIGNsYXNzPSJzdDEiLz4mI3hhOwkJPHBhdGggZD0iTTI4LjUsODEuNUwyMSw3My45Yy0xLjMtMS4zLTEuMy0zLjEsMC00LjNsNy42LTcuNyIgY2xhc3M9InN0MSIvPiYjeGE7CTwvZz4mI3hhOwk8Zz4mI3hhOwkJPHBhdGggZD0iTTEwMCw3MS45SDcxLjZ2MjgiIGNsYXNzPSJzdDEiLz4mI3hhOwkJPHBhdGggZD0iTTgxLjIsOTEuNGwtNy42LDcuNWMtMS4zLDEuMy0zLjEsMS4zLTQuMywwbC03LjctNy42IiBjbGFzcz0ic3QxIi8+JiN4YTsJPC9nPiYjeGE7PC9nPiYjeGE7PC9zdmc+;" parent="1" vertex="1">
                        <mxGeometry x="246.72" y="282" width="75" height="75" as="geometry"/>
                    </mxCell>
                </object>
                <object label="SW2" id="clab-LAB-2-SW2">
                    <mxCell style="shape=image;imageAlign=center;imageVerticalAlign=middle;labelPosition=left;align=right;verticalLabelPosition=top;spacingLeft=0;verticalAlign=bottom;spacingTop=0;spacing=0;editableCssRules=\.st[0-2]$;labelBackgroundColor=none;aspect=fixed;imageAspect=0;image=data:image/svg+xml,PHN2ZyB4bWxuczp4bGluaz0iaHR0cDovL3d3dy53My5vcmcvMTk5OS94bGluayIgeG1sbnM9Imh0dHA6Ly93d3cudzMub3JnLzIwMDAvc3ZnIiB4bWw6c3BhY2U9InByZXNlcnZlIiBzdHlsZT0iZW5hYmxlLWJhY2tncm91bmQ6bmV3IDAgMCAxMjAgMTIwO2VkaXRhYmxlQ3NzUnVsZXM9Lio7IiB2aWV3Qm94PSIwIDAgMTIwIDEyMCIgeT0iMHB4IiB4PSIwcHgiIGlkPSJMYXllcl8xIiB2ZXJzaW9uPSIxLjEiPiYjeGE7PHN0eWxlIHR5cGU9InRleHQvY3NzIj4mI3hhOwkuc3Qwe2ZpbGw6IzAwMTEzNTt9JiN4YTsJLnN0MXtmaWxsOm5vbmU7c3Ryb2tlOiNGRkZGRkY7c3Ryb2tlLXdpZHRoOjQ7c3Ryb2tlLWxpbmVjYXA6cm91bmQ7c3Ryb2tlLWxpbmVqb2luOnJvdW5kO3N0cm9rZS1taXRlcmxpbWl0OjEwO30mI3hhOwkuc3Qye2ZpbGw6I0ZGRkZGRjt9JiN4YTsJLnN0M3tmaWxsOm5vbmU7c3Ryb2tlOiNGRkZGRkY7c3Ryb2tlLXdpZHRoOjQ7c3Ryb2tlLW1pdGVybGltaXQ6MTA7fSYjeGE7CS5zdDR7ZmlsbDpub25lO3N0cm9rZTojRkZGRkZGO3N0cm9rZS13aWR0aDo0O3N0cm9rZS1saW5lY2FwOnJvdW5kO3N0cm9rZS1saW5lam9pbjpyb3VuZDt9JiN4YTsJLnN0NXtmaWxsOiNGRkZGRkY7c3Ryb2tlOiNGRkZGRkY7c3Ryb2tlLXdpZHRoOjQ7c3Ryb2tlLWxpbmVjYXA6cm91bmQ7c3Ryb2tlLWxpbmVqb2luOnJvdW5kO3N0cm9rZS1taXRlcmxpbWl0OjEwO30mI3hhOwkuc3Q2e2ZpbGw6bm9uZTtzdHJva2U6I0ZGRkZGRjtzdHJva2Utd2lkdGg6NC4yMzMzO3N0cm9rZS1saW5lY2FwOnJvdW5kO3N0cm9rZS1saW5lam9pbjpyb3VuZDtzdHJva2UtbWl0ZXJsaW1pdDoxMDt9JiN4YTsJLnN0N3tmaWxsOm5vbmU7c3Ryb2tlOiNGRkZGRkY7c3Ryb2tlLXdpZHRoOjQ7c3Ryb2tlLWxpbmVjYXA6cm91bmQ7c3Ryb2tlLW1pdGVybGltaXQ6MTA7fSYjeGE7CS5zdDh7ZmlsbDojRkZGRkZGO3N0cm9rZTojRkZGRkZGO3N0cm9rZS13aWR0aDo0O3N0cm9rZS1taXRlcmxpbWl0OjEwO30mI3hhOwkuc3Q5e2ZpbGw6I0ZGRkZGRjtzdHJva2U6I0ZGRkZGRjtzdHJva2Utd2lkdGg6NDt9JiN4YTsJLnN0MTB7ZmlsbDpub25lO3N0cm9rZTojRkZGRkZGO3N0cm9rZS13aWR0aDo0O30mI3hhOwkuc3QxMXtmaWxsOiMyNjI2MjY7c3Ryb2tlOiNGRkZGRkY7c3Ryb2tlLXdpZHRoOjQuMjMzMzt9JiN4YTsJLnN0MTJ7ZmlsbC1ydWxlOmV2ZW5vZGQ7Y2xpcC1ydWxlOmV2ZW5vZGQ7ZmlsbDpub25lO3N0cm9rZTojRkZGRkZGO3N0cm9rZS13aWR0aDo0O3N0cm9rZS1taXRlcmxpbWl0OjEwO30mI3hhOwkuc3QxM3tmaWxsLXJ1bGU6ZXZlbm9kZDtjbGlwLXJ1bGU6ZXZlbm9kZDtmaWxsOiNGRkZGRkY7c3Ryb2tlOiNGRkZGRkY7c3Ryb2tlLXdpZHRoOjQ7fSYjeGE7CS5zdDE0e2ZpbGw6bm9uZTtzdHJva2U6I0ZGRkZGRjtzdHJva2Utd2lkdGg6NC4yMzMzO3N0cm9rZS1saW5lY2FwOnJvdW5kO3N0cm9rZS1saW5lam9pbjpyb3VuZDt9JiN4YTsJLnN0MTV7ZmlsbDpub25lO3N0cm9rZTojRkZGRkZGO3N0cm9rZS13aWR0aDo0O3N0cm9rZS1saW5lY2FwOnJvdW5kO30mI3hhOwkuc3QxNntmaWxsOiNGRkZGRkY7c3Ryb2tlOiNGRkZGRkY7c3Ryb2tlLW1pdGVybGltaXQ6MTA7fSYjeGE7CS5zdDE3e2ZpbGw6IzI2MjYyNjtzdHJva2U6I0ZGRkZGRjtzdHJva2Utd2lkdGg6NDtzdHJva2UtbWl0ZXJsaW1pdDoxMDt9JiN4YTsJLnN0MTh7ZmlsbDojRkZGRkZGO3N0cm9rZTojRkZGRkZGO3N0cm9rZS13aWR0aDo0O3N0cm9rZS1saW5lY2FwOnJvdW5kO3N0cm9rZS1saW5lam9pbjpyb3VuZDt9JiN4YTs8L3N0eWxlPiYjeGE7PHJlY3QgaGVpZ2h0PSIxMjAiIHdpZHRoPSIxMjAiIGNsYXNzPSJzdDAiLz4mI3hhOzxnPiYjeGE7CTxnPiYjeGE7CQk8cGF0aCBkPSJNNzEuNywxOS43VjQ4aDI4IiBjbGFzcz0ic3QxIi8+JiN4YTsJCTxwYXRoIGQ9Ik05MS4yLDM4LjVsNy41LDcuNmMxLjMsMS4zLDEuMywzLjEsMCw0LjNMOTEuMSw1OCIgY2xhc3M9InN0MSIvPiYjeGE7CTwvZz4mI3hhOwk8Zz4mI3hhOwkJPHBhdGggZD0iTTIwLDQ3LjhoMjguNHYtMjgiIGNsYXNzPSJzdDEiLz4mI3hhOwkJPHBhdGggZD0iTTM4LjgsMjguM2w3LjYtNy41YzEuMy0xLjMsMy4xLTEuMyw0LjMsMGw3LjcsNy42IiBjbGFzcz0ic3QxIi8+JiN4YTsJPC9nPiYjeGE7CTxnPiYjeGE7CQk8cGF0aCBkPSJNNDgsMTAwLjNWNzJIMjAiIGNsYXNzPSJzdDEiLz4mI3hhOwkJPHBhdGggZD0iTTI4LjUsODEuNUwyMSw3My45Yy0xLjMtMS4zLTEuMy0zLjEsMC00LjNsNy42LTcuNyIgY2xhc3M9InN0MSIvPiYjeGE7CTwvZz4mI3hhOwk8Zz4mI3hhOwkJPHBhdGggZD0iTTEwMCw3MS45SDcxLjZ2MjgiIGNsYXNzPSJzdDEiLz4mI3hhOwkJPHBhdGggZD0iTTgxLjIsOTEuNGwtNy42LDcuNWMtMS4zLDEuMy0zLjEsMS4zLTQuMywwbC03LjctNy42IiBjbGFzcz0ic3QxIi8+JiN4YTsJPC9nPiYjeGE7PC9nPiYjeGE7PC9zdmc+;" parent="1" vertex="1">
                        <mxGeometry x="441" y="282" width="75" height="75" as="geometry"/>
                    </mxCell>
                </object>
                <object label="SW3" id="clab-LAB-2-SW3">
                    <mxCell style="shape=image;imageAlign=center;imageVerticalAlign=middle;labelPosition=left;align=right;verticalLabelPosition=top;spacingLeft=0;verticalAlign=bottom;spacingTop=0;spacing=0;editableCssRules=\.st[0-2]$;labelBackgroundColor=none;aspect=fixed;imageAspect=0;image=data:image/svg+xml,PHN2ZyB4bWxuczp4bGluaz0iaHR0cDovL3d3dy53My5vcmcvMTk5OS94bGluayIgeG1sbnM9Imh0dHA6Ly93d3cudzMub3JnLzIwMDAvc3ZnIiB4bWw6c3BhY2U9InByZXNlcnZlIiBzdHlsZT0iZW5hYmxlLWJhY2tncm91bmQ6bmV3IDAgMCAxMjAgMTIwO2VkaXRhYmxlQ3NzUnVsZXM9Lio7IiB2aWV3Qm94PSIwIDAgMTIwIDEyMCIgeT0iMHB4IiB4PSIwcHgiIGlkPSJMYXllcl8xIiB2ZXJzaW9uPSIxLjEiPiYjeGE7PHN0eWxlIHR5cGU9InRleHQvY3NzIj4mI3hhOwkuc3Qwe2ZpbGw6IzAwMTEzNTt9JiN4YTsJLnN0MXtmaWxsOm5vbmU7c3Ryb2tlOiNGRkZGRkY7c3Ryb2tlLXdpZHRoOjQ7c3Ryb2tlLWxpbmVjYXA6cm91bmQ7c3Ryb2tlLWxpbmVqb2luOnJvdW5kO3N0cm9rZS1taXRlcmxpbWl0OjEwO30mI3hhOwkuc3Qye2ZpbGw6I0ZGRkZGRjt9JiN4YTsJLnN0M3tmaWxsOm5vbmU7c3Ryb2tlOiNGRkZGRkY7c3Ryb2tlLXdpZHRoOjQ7c3Ryb2tlLW1pdGVybGltaXQ6MTA7fSYjeGE7CS5zdDR7ZmlsbDpub25lO3N0cm9rZTojRkZGRkZGO3N0cm9rZS13aWR0aDo0O3N0cm9rZS1saW5lY2FwOnJvdW5kO3N0cm9rZS1saW5lam9pbjpyb3VuZDt9JiN4YTsJLnN0NXtmaWxsOiNGRkZGRkY7c3Ryb2tlOiNGRkZGRkY7c3Ryb2tlLXdpZHRoOjQ7c3Ryb2tlLWxpbmVjYXA6cm91bmQ7c3Ryb2tlLWxpbmVqb2luOnJvdW5kO3N0cm9rZS1taXRlcmxpbWl0OjEwO30mI3hhOwkuc3Q2e2ZpbGw6bm9uZTtzdHJva2U6I0ZGRkZGRjtzdHJva2Utd2lkdGg6NC4yMzMzO3N0cm9rZS1saW5lY2FwOnJvdW5kO3N0cm9rZS1saW5lam9pbjpyb3VuZDtzdHJva2UtbWl0ZXJsaW1pdDoxMDt9JiN4YTsJLnN0N3tmaWxsOm5vbmU7c3Ryb2tlOiNGRkZGRkY7c3Ryb2tlLXdpZHRoOjQ7c3Ryb2tlLWxpbmVjYXA6cm91bmQ7c3Ryb2tlLW1pdGVybGltaXQ6MTA7fSYjeGE7CS5zdDh7ZmlsbDojRkZGRkZGO3N0cm9rZTojRkZGRkZGO3N0cm9rZS13aWR0aDo0O3N0cm9rZS1taXRlcmxpbWl0OjEwO30mI3hhOwkuc3Q5e2ZpbGw6I0ZGRkZGRjtzdHJva2U6I0ZGRkZGRjtzdHJva2Utd2lkdGg6NDt9JiN4YTsJLnN0MTB7ZmlsbDpub25lO3N0cm9rZTojRkZGRkZGO3N0cm9rZS13aWR0aDo0O30mI3hhOwkuc3QxMXtmaWxsOiMyNjI2MjY7c3Ryb2tlOiNGRkZGRkY7c3Ryb2tlLXdpZHRoOjQuMjMzMzt9JiN4YTsJLnN0MTJ7ZmlsbC1ydWxlOmV2ZW5vZGQ7Y2xpcC1ydWxlOmV2ZW5vZGQ7ZmlsbDpub25lO3N0cm9rZTojRkZGRkZGO3N0cm9rZS13aWR0aDo0O3N0cm9rZS1taXRlcmxpbWl0OjEwO30mI3hhOwkuc3QxM3tmaWxsLXJ1bGU6ZXZlbm9kZDtjbGlwLXJ1bGU6ZXZlbm9kZDtmaWxsOiNGRkZGRkY7c3Ryb2tlOiNGRkZGRkY7c3Ryb2tlLXdpZHRoOjQ7fSYjeGE7CS5zdDE0e2ZpbGw6bm9uZTtzdHJva2U6I0ZGRkZGRjtzdHJva2Utd2lkdGg6NC4yMzMzO3N0cm9rZS1saW5lY2FwOnJvdW5kO3N0cm9rZS1saW5lam9pbjpyb3VuZDt9JiN4YTsJLnN0MTV7ZmlsbDpub25lO3N0cm9rZTojRkZGRkZGO3N0cm9rZS13aWR0aDo0O3N0cm9rZS1saW5lY2FwOnJvdW5kO30mI3hhOwkuc3QxNntmaWxsOiNGRkZGRkY7c3Ryb2tlOiNGRkZGRkY7c3Ryb2tlLW1pdGVybGltaXQ6MTA7fSYjeGE7CS5zdDE3e2ZpbGw6IzI2MjYyNjtzdHJva2U6I0ZGRkZGRjtzdHJva2Utd2lkdGg6NDtzdHJva2UtbWl0ZXJsaW1pdDoxMDt9JiN4YTsJLnN0MTh7ZmlsbDojRkZGRkZGO3N0cm9rZTojRkZGRkZGO3N0cm9rZS13aWR0aDo0O3N0cm9rZS1saW5lY2FwOnJvdW5kO3N0cm9rZS1saW5lam9pbjpyb3VuZDt9JiN4YTs8L3N0eWxlPiYjeGE7PHJlY3QgaGVpZ2h0PSIxMjAiIHdpZHRoPSIxMjAiIGNsYXNzPSJzdDAiLz4mI3hhOzxnPiYjeGE7CTxnPiYjeGE7CQk8cGF0aCBkPSJNNzEuNywxOS43VjQ4aDI4IiBjbGFzcz0ic3QxIi8+JiN4YTsJCTxwYXRoIGQ9Ik05MS4yLDM4LjVsNy41LDcuNmMxLjMsMS4zLDEuMywzLjEsMCw0LjNMOTEuMSw1OCIgY2xhc3M9InN0MSIvPiYjeGE7CTwvZz4mI3hhOwk8Zz4mI3hhOwkJPHBhdGggZD0iTTIwLDQ3LjhoMjguNHYtMjgiIGNsYXNzPSJzdDEiLz4mI3hhOwkJPHBhdGggZD0iTTM4LjgsMjguM2w3LjYtNy41YzEuMy0xLjMsMy4xLTEuMyw0LjMsMGw3LjcsNy42IiBjbGFzcz0ic3QxIi8+JiN4YTsJPC9nPiYjeGE7CTxnPiYjeGE7CQk8cGF0aCBkPSJNNDgsMTAwLjNWNzJIMjAiIGNsYXNzPSJzdDEiLz4mI3hhOwkJPHBhdGggZD0iTTI4LjUsODEuNUwyMSw3My45Yy0xLjMtMS4zLTEuMy0zLjEsMC00LjNsNy42LTcuNyIgY2xhc3M9InN0MSIvPiYjeGE7CTwvZz4mI3hhOwk8Zz4mI3hhOwkJPHBhdGggZD0iTTEwMCw3MS45SDcxLjZ2MjgiIGNsYXNzPSJzdDEiLz4mI3hhOwkJPHBhdGggZD0iTTgxLjIsOTEuNGwtNy42LDcuNWMtMS4zLDEuMy0zLjEsMS4zLTQuMywwbC03LjctNy42IiBjbGFzcz0ic3QxIi8+JiN4YTsJPC9nPiYjeGE7PC9nPiYjeGE7PC9zdmc+;" parent="1" vertex="1">
                        <mxGeometry x="645" y="282" width="75" height="75" as="geometry"/>
                    </mxCell>
                </object>
                <object label="" source="clab-LAB-2-R1" target="clab-LAB-2-SW1" id="link_id:link:clab-LAB-2-R1:e0/1:clab-LAB-2-SW1:e0/1">
                    <mxCell style="endArrow=none;jumpStyle=gap;entryY=0;exitY=1;entryX=0.5;exitX=0.5;" parent="1" source="clab-LAB-2-R1" target="clab-LAB-2-SW1" edge="1">
                        <mxGeometry relative="1" as="geometry"/>
                    </mxCell>
                </object>
                <object label="e0/1" id="label:clab-LAB-2-R1:e0/1">
                    <mxCell style="rounded=1;whiteSpace=wrap;html=1;fontFamily=Google Sans;fontSource=https%3A%2F%2Ffonts.googleapis.com%2Fcss%3Ffamily%3DGoogle%2BSans;arcSize=32;spacing=0;spacingBottom=1;fillColor=#f5f5f5;fontColor=#333333;strokeColor=#98A2AE;fontSize=8;horizontal=1;fontStyle=1" parent="1" vertex="1">
                        <mxGeometry x="273" y="155" width="20" height="10" as="geometry"/>
                    </mxCell>
                </object>
                <object label="" source="clab-LAB-2-R2" target="clab-LAB-2-SW1" id="link_id:link:clab-LAB-2-R2:e0/1:clab-LAB-2-SW1:e0/2">
                    <mxCell style="endArrow=none;jumpStyle=gap;entryY=0;exitY=1;entryX=0.5;exitX=0.5;" parent="1" source="clab-LAB-2-R2" target="clab-LAB-2-SW1" edge="1">
                        <mxGeometry relative="1" as="geometry"/>
                    </mxCell>
                </object>
                <object label="e0/2" id="label:clab-LAB-2-SW1:e0/2">
                    <mxCell style="rounded=1;whiteSpace=wrap;html=1;fontFamily=Google Sans;fontSource=https%3A%2F%2Ffonts.googleapis.com%2Fcss%3Ffamily%3DGoogle%2BSans;arcSize=32;spacing=0;spacingBottom=1;fillColor=#f5f5f5;fontColor=#333333;strokeColor=#98A2AE;fontSize=8;horizontal=1;fontStyle=1" parent="1" vertex="1">
                        <mxGeometry x="273.22376902759487" y="356.99723067893103" width="20" height="10" as="geometry"/>
                    </mxCell>
                </object>
                <object label="" source="clab-LAB-2-R3" target="clab-LAB-2-SW1" id="link_id:link:clab-LAB-2-R3:e0/1:clab-LAB-2-SW1:e0/3">
                    <mxCell style="endArrow=none;jumpStyle=gap;entryY=0.5;exitY=0.5;entryX=0;exitX=1;entryDx=0;entryDy=0;exitDx=0;exitDy=0;" parent="1" source="clab-LAB-2-R3" target="clab-LAB-2-SW1" edge="1">
                        <mxGeometry relative="1" as="geometry"/>
                    </mxCell>
                </object>
                <object label="e0/1" id="label:clab-LAB-2-R3:e0/1">
                    <mxCell style="rounded=1;whiteSpace=wrap;html=1;fontFamily=Google Sans;fontSource=https%3A%2F%2Ffonts.googleapis.com%2Fcss%3Ffamily%3DGoogle%2BSans;arcSize=32;spacing=0;spacingBottom=1;fillColor=#f5f5f5;fontColor=#333333;strokeColor=#98A2AE;fontSize=8;horizontal=1;fontStyle=1" parent="1" vertex="1">
                        <mxGeometry x="275" y="272" width="20" height="10" as="geometry"/>
                    </mxCell>
                </object>
                <object label="" source="clab-LAB-2-R4" target="clab-LAB-2-SW3" id="link_id:link:clab-LAB-2-R4:e0/1:clab-LAB-2-SW3:e0/1">
                    <mxCell style="endArrow=none;jumpStyle=gap;entryY=0;exitY=1;entryX=0.5;exitX=0.5;" parent="1" source="clab-LAB-2-R4" target="clab-LAB-2-SW3" edge="1">
                        <mxGeometry relative="1" as="geometry"/>
                    </mxCell>
                </object>
                <object label="e0/1" id="label:clab-LAB-2-R4:e0/1">
                    <mxCell style="rounded=1;whiteSpace=wrap;html=1;fontFamily=Google Sans;fontSource=https%3A%2F%2Ffonts.googleapis.com%2Fcss%3Ffamily%3DGoogle%2BSans;arcSize=32;spacing=0;spacingBottom=1;fillColor=#f5f5f5;fontColor=#333333;strokeColor=#98A2AE;fontSize=8;horizontal=1;fontStyle=1" parent="1" vertex="1">
                        <mxGeometry x="672" y="155" width="20" height="10" as="geometry"/>
                    </mxCell>
                </object>
                <object label="e0/1" id="label:clab-LAB-2-SW3:e0/1">
                    <mxCell style="rounded=1;whiteSpace=wrap;html=1;fontFamily=Google Sans;fontSource=https%3A%2F%2Ffonts.googleapis.com%2Fcss%3Ffamily%3DGoogle%2BSans;arcSize=32;spacing=0;spacingBottom=1;fillColor=#f5f5f5;fontColor=#333333;strokeColor=#98A2AE;fontSize=8;horizontal=1;fontStyle=1" parent="1" vertex="1">
                        <mxGeometry x="672" y="272" width="20" height="10" as="geometry"/>
                    </mxCell>
                </object>
                <object label="" source="clab-LAB-2-R5" target="clab-LAB-2-SW3" id="link_id:link:clab-LAB-2-R5:e0/1:clab-LAB-2-SW3:e0/2">
                    <mxCell style="endArrow=none;jumpStyle=gap;entryX=0.5;entryY=1;entryDx=0;entryDy=0;exitX=0.5;exitY=0;exitDx=0;exitDy=0;" parent="1" source="clab-LAB-2-R5" target="clab-LAB-2-SW3" edge="1">
                        <mxGeometry relative="1" as="geometry">
                            <mxPoint x="715" y="402" as="sourcePoint"/>
                            <mxPoint x="736" y="385" as="targetPoint"/>
                        </mxGeometry>
                    </mxCell>
                </object>
                <object label="e0/1" id="label:clab-LAB-2-R5:e0/1">
                    <mxCell style="rounded=1;whiteSpace=wrap;html=1;fontFamily=Google Sans;fontSource=https%3A%2F%2Ffonts.googleapis.com%2Fcss%3Ffamily%3DGoogle%2BSans;arcSize=32;spacing=0;spacingBottom=1;fillColor=#f5f5f5;fontColor=#333333;strokeColor=#98A2AE;fontSize=8;horizontal=1;fontStyle=1" parent="1" vertex="1">
                        <mxGeometry x="672.0037690275949" y="435.00276932106897" width="20" height="10" as="geometry"/>
                    </mxCell>
                </object>
                <object label="e0/2" id="label:clab-LAB-2-SW3:e0/2">
                    <mxCell style="rounded=1;whiteSpace=wrap;html=1;fontFamily=Google Sans;fontSource=https%3A%2F%2Ffonts.googleapis.com%2Fcss%3Ffamily%3DGoogle%2BSans;arcSize=32;spacing=0;spacingBottom=1;fillColor=#f5f5f5;fontColor=#333333;strokeColor=#98A2AE;fontSize=8;horizontal=1;fontStyle=1" parent="1" vertex="1">
                        <mxGeometry x="672.9962309724052" y="356.99723067893103" width="20" height="10" as="geometry"/>
                    </mxCell>
                </object>
                <object label="" source="clab-LAB-2-SW1" target="clab-LAB-2-SW2" id="link_id:link:clab-LAB-2-SW1:e1/1:clab-LAB-2-SW2:e0/1">
                    <mxCell style="endArrow=none;jumpStyle=gap;entryY=0.5;exitY=0.5;entryX=0;exitX=1;exitDx=0;exitDy=0;entryDx=0;entryDy=0;" parent="1" source="clab-LAB-2-SW1" target="clab-LAB-2-SW2" edge="1">
                        <mxGeometry relative="1" as="geometry"/>
                    </mxCell>
                </object>
                <object label="e1/1" id="label:clab-LAB-2-SW1:e1/1">
                    <mxCell style="rounded=1;whiteSpace=wrap;html=1;fontFamily=Google Sans;fontSource=https%3A%2F%2Ffonts.googleapis.com%2Fcss%3Ffamily%3DGoogle%2BSans;arcSize=32;spacing=0;spacingBottom=1;fillColor=#f5f5f5;fontColor=#333333;strokeColor=#98A2AE;fontSize=8;horizontal=1;fontStyle=1" parent="1" vertex="1">
                        <mxGeometry x="322" y="314" width="20" height="10" as="geometry"/>
                    </mxCell>
                </object>
                <object label="e0/1" id="label:clab-LAB-2-SW2:e0/1">
                    <mxCell style="rounded=1;whiteSpace=wrap;html=1;fontFamily=Google Sans;fontSource=https%3A%2F%2Ffonts.googleapis.com%2Fcss%3Ffamily%3DGoogle%2BSans;arcSize=32;spacing=0;spacingBottom=1;fillColor=#f5f5f5;fontColor=#333333;strokeColor=#98A2AE;fontSize=8;horizontal=1;fontStyle=1" parent="1" vertex="1">
                        <mxGeometry x="421" y="313" width="20" height="10" as="geometry"/>
                    </mxCell>
                </object>
                <object label="" source="clab-LAB-2-SW2" target="clab-LAB-2-SW3" id="link_id:link:clab-LAB-2-SW2:e0/2:clab-LAB-2-SW3:e0/3">
                    <mxCell style="endArrow=none;jumpStyle=gap;entryY=0.5;exitY=0.5;entryX=0;exitX=1;exitDx=0;exitDy=0;entryDx=0;entryDy=0;" parent="1" source="clab-LAB-2-SW2" target="clab-LAB-2-SW3" edge="1">
                        <mxGeometry relative="1" as="geometry"/>
                    </mxCell>
                </object>
                <object label="e0/2" id="label:clab-LAB-2-SW2:e0/2">
                    <mxCell style="rounded=1;whiteSpace=wrap;html=1;fontFamily=Google Sans;fontSource=https%3A%2F%2Ffonts.googleapis.com%2Fcss%3Ffamily%3DGoogle%2BSans;arcSize=32;spacing=0;spacingBottom=1;fillColor=#f5f5f5;fontColor=#333333;strokeColor=#98A2AE;fontSize=8;horizontal=1;fontStyle=1" parent="1" vertex="1">
                        <mxGeometry x="516" y="314" width="20" height="10" as="geometry"/>
                    </mxCell>
                </object>
                <object label="e0/3" id="label:clab-LAB-2-SW3:e0/3">
                    <mxCell style="rounded=1;whiteSpace=wrap;html=1;fontFamily=Google Sans;fontSource=https%3A%2F%2Ffonts.googleapis.com%2Fcss%3Ffamily%3DGoogle%2BSans;arcSize=32;spacing=0;spacingBottom=1;fillColor=#f5f5f5;fontColor=#333333;strokeColor=#98A2AE;fontSize=8;horizontal=1;fontStyle=1" parent="1" vertex="1">
                        <mxGeometry x="625" y="314" width="20" height="10" as="geometry"/>
                    </mxCell>
                </object>
                <mxCell id="9" value="10.0.10.0" style="text;strokeColor=none;align=center;fillColor=none;html=1;verticalAlign=middle;whiteSpace=wrap;rounded=0;" parent="1" vertex="1">
                    <mxGeometry x="292" y="155" width="60" height="15" as="geometry"/>
                </mxCell>
                <object label="e0/1" id="label:clab-LAB-2-R2:e0/1">
                    <mxCell style="rounded=1;whiteSpace=wrap;html=1;fontFamily=Google Sans;fontSource=https%3A%2F%2Ffonts.googleapis.com%2Fcss%3Ffamily%3DGoogle%2BSans;arcSize=32;spacing=0;spacingBottom=1;fillColor=#f5f5f5;fontColor=#333333;strokeColor=#98A2AE;fontSize=8;horizontal=1;fontStyle=1" parent="1" vertex="1">
                        <mxGeometry x="124.99623097240513" y="314.00276932106897" width="20" height="10" as="geometry"/>
                    </mxCell>
                </object>
                <object label="e0/3" id="label:clab-LAB-2-SW1:e0/3">
                    <mxCell style="rounded=1;whiteSpace=wrap;html=1;fontFamily=Google Sans;fontSource=https%3A%2F%2Ffonts.googleapis.com%2Fcss%3Ffamily%3DGoogle%2BSans;arcSize=32;spacing=0;spacingBottom=1;fillColor=#f5f5f5;fontColor=#333333;strokeColor=#98A2AE;fontSize=8;horizontal=1;fontStyle=1" parent="1" vertex="1">
                        <mxGeometry x="227" y="314" width="20" height="10" as="geometry"/>
                    </mxCell>
                </object>
                <object label="e0/1" id="label:clab-LAB-2-SW1:e0/1">
                    <mxCell style="rounded=1;whiteSpace=wrap;html=1;fontFamily=Google Sans;fontSource=https%3A%2F%2Ffonts.googleapis.com%2Fcss%3Ffamily%3DGoogle%2BSans;arcSize=32;spacing=0;spacingBottom=1;fillColor=#f5f5f5;fontColor=#333333;strokeColor=#98A2AE;fontSize=8;horizontal=1;fontStyle=1" parent="1" vertex="1">
                        <mxGeometry x="272" y="435" width="20" height="10" as="geometry"/>
                    </mxCell>
                </object>
                <mxCell id="12" value="10.0.10.1" style="text;strokeColor=none;align=center;fillColor=none;html=1;verticalAlign=middle;whiteSpace=wrap;rounded=0;" parent="1" vertex="1">
                    <mxGeometry x="612" y="155" width="60" height="15" as="geometry"/>
                </mxCell>
                <mxCell id="13" value="10.0.20.1" style="text;strokeColor=none;align=center;fillColor=none;html=1;verticalAlign=middle;whiteSpace=wrap;rounded=0;" parent="1" vertex="1">
                    <mxGeometry x="693" y="424" width="60" height="15" as="geometry"/>
                </mxCell>
                <mxCell id="14" value="10.0.20.0" style="text;strokeColor=none;align=center;fillColor=none;html=1;verticalAlign=middle;whiteSpace=wrap;rounded=0;" parent="1" vertex="1">
                    <mxGeometry x="292" y="426" width="60" height="15" as="geometry"/>
                </mxCell>
                <mxCell id="15" value="10.0.30.0" style="text;strokeColor=none;align=center;fillColor=none;html=1;verticalAlign=middle;whiteSpace=wrap;rounded=0;" parent="1" vertex="1">
                    <mxGeometry x="121" y="324" width="60" height="15" as="geometry"/>
                </mxCell>
                <mxCell id="16" value="" style="ellipse;whiteSpace=wrap;html=1;fillColor=none;strokeColor=light-dark(#0000FF,#EDEDED);strokeWidth=3;fontColor=light-dark(#0e21af, #ededed);labelBorderColor=default;" parent="1" vertex="1">
                    <mxGeometry x="212" y="-6" width="545.78" height="222" as="geometry"/>
                </mxCell>
                <mxCell id="17" value="Text" style="text;strokeColor=none;align=center;fillColor=none;html=1;verticalAlign=middle;whiteSpace=wrap;rounded=0;" parent="1" vertex="1">
                    <mxGeometry x="496" y="238" width="60" height="30" as="geometry"/>
                </mxCell>
                <mxCell id="18" value="&lt;b&gt;&lt;font style=&quot;font-size: 20px;&quot;&gt;VLAN 30&lt;/font&gt;&lt;/b&gt;" style="text;strokeColor=none;align=center;fillColor=none;html=1;verticalAlign=middle;whiteSpace=wrap;rounded=0;fontColor=default;" parent="1" vertex="1">
                    <mxGeometry x="85" y="242" width="88" height="30" as="geometry"/>
                </mxCell>
                <mxCell id="19" value="" style="ellipse;whiteSpace=wrap;html=1;fillColor=none;strokeColor=light-dark(#FF0000,#EDEDED);strokeWidth=3;fontColor=light-dark(#0e21af, #ededed);labelBorderColor=default;" parent="1" vertex="1">
                    <mxGeometry x="197" y="370" width="586" height="200" as="geometry"/>
                </mxCell>
                <mxCell id="20" value="&lt;b&gt;&lt;font style=&quot;font-size: 20px;&quot;&gt;VLAN 20&lt;/font&gt;&lt;/b&gt;" style="text;strokeColor=none;align=center;fillColor=none;html=1;verticalAlign=middle;whiteSpace=wrap;rounded=0;fontColor=default;" parent="1" vertex="1">
                    <mxGeometry x="431" y="457" width="88" height="30" as="geometry"/>
                </mxCell>
                <mxCell id="22" value="" style="ellipse;whiteSpace=wrap;html=1;fillColor=none;strokeColor=light-dark(#FF0080,#EDEDED);strokeWidth=3;fontColor=light-dark(#0e21af, #ededed);labelBorderColor=default;" parent="1" vertex="1">
                    <mxGeometry x="23" y="212" width="170" height="174" as="geometry"/>
                </mxCell>
                <mxCell id="23" value="&lt;b&gt;&lt;font style=&quot;font-size: 20px;&quot;&gt;VLAN 10&lt;/font&gt;&lt;/b&gt;" style="text;strokeColor=none;align=center;fillColor=none;html=1;verticalAlign=middle;whiteSpace=wrap;rounded=0;fontColor=default;" parent="1" vertex="1">
                    <mxGeometry x="450.89" y="96" width="88" height="30" as="geometry"/>
                </mxCell>
            </root>
        </mxGraphModel>
    </diagram>
</mxfile>